# xmcd
#
# Track frame offsets:
#	150
#	17753
#	31312
#
# Disc length: 652 seconds
#
# Revision: 0
# Processed by: cddbd v1.5.1PL0 Copyright (c) Steve Scherf et al.
# Submitted via: dBpowerAMP V4.0
#
DISCID=19028a03
DTITLE=Quimi Portet - Tres Singles
DYEAR=1900
DGENRE=Rock
TTITLE0=Tecnicament perfecte
TTITLE1=Bona nit
TTITLE2=Frases fetes
EXTD=
EXTT0=
EXTT1=
EXTT2=
PLAYORDER=
